<svg xmlns="http://www.w3.org/2000/svg" width="20.613" height="22.903" viewBox="0 0 20.613 22.903">
  <path id="ic_receipt_24px" d="M20.177,19.177H6.435v-2.29H20.177Zm0-4.581H6.435v-2.29H20.177Zm0-4.581H6.435V7.726H20.177ZM3,24.9l1.718-1.718L6.435,24.9l1.718-1.718L9.871,24.9l1.718-1.718L13.306,24.9l1.718-1.718L16.742,24.9l1.718-1.718L20.177,24.9l1.718-1.718L23.612,24.9V2L21.895,3.718,20.177,2,18.459,3.718,16.742,2,15.024,3.718,13.306,2,11.589,3.718,9.871,2,8.153,3.718,6.435,2,4.718,3.718,3,2Z" transform="translate(-3 -2)" fill="#5a585a"/>
</svg>
